# xmcd CD database file generated by Grip 2.95
# 
# Track frame offsets:
#       150
#       16616
#       32446
#       51650
#       91983
#       113790
#       136632
#       156108
#       169506
#       187205
#       205614
#       221794
#       241034
#       253994
#       267034
#       281442
#       299014
#       323306
#       342321
# 
# Disc length: 4786 seconds
# 
# Revision: 3
# Processed by: cddbd v1.4b41PL1 Copyright (c) Steve Scherf et al.
# Submitted via: Grip 2.95
# 
DISCID=0c12b013
DTITLE=Garth Brooks - Garth Mix 1
DYEAR=1900
DGENRE=
TTITLE0=Alabama Clay
TTITLE1=Belleau Wood
TTITLE2=Every Now and Then
TTITLE3=Friends in Low Places
TTITLE4=In Lonsome Dove
TTITLE5=Ireland
TTITLE6=It's Your Song
TTITLE7=Much to Young (to Feel This Damn Old)
TTITLE8=New Way to Fly
TTITLE9=Night Riders Lament
TTITLE10=No One Around
TTITLE11=One Night a Day
TTITLE12=Papa Loved Mama
TTITLE13=She's Every Woman
TTITLE14=Some Where Other Than the Night
TTITLE15=Standing Outside the Fire
TTITLE16=That Old Wind
TTITLE17=The Beaches of Cheyenne
TTITLE18=The Dance
EXTD=
EXTT0=
EXTT1=
EXTT2=
EXTT3=
EXTT4=
EXTT5=
EXTT6=
EXTT7=
EXTT8=
EXTT9=
EXTT10=
EXTT11=
EXTT12=
EXTT13=
EXTT14=
EXTT15=
EXTT16=
EXTT17=
EXTT18=
PLAYORDER=
